<svg width="512" height="512" viewBox="0 0 512 512" fill="none" xmlns="http://www.w3.org/2000/svg">
  <rect width="512" height="512" rx="128" fill="url(#bg)" />
  <circle cx="256" cy="256" r="132" fill="rgba(255,255,255,0.08)" />
  <path d="M257.4 100C168.4 100 96 172.4 96 261.4C96 350.4 168.4 422.8 257.4 422.8C346.4 422.8 418.8 350.4 418.8 261.4C418.8 172.4 346.4 100 257.4 100ZM257.4 390.8C186 390.8 128 332.8 128 261.4C128 190 186 132 257.4 132C328.8 132 386.8 190 386.8 261.4C386.8 332.8 328.8 390.8 257.4 390.8Z" fill="#DDFBFF" />
  <path d="M223.6 198.8L334.8 165.6C344.9 162.6 354.4 172.1 351.3 182.2L318.1 293.4C315.2 303.2 302.8 306.3 295.6 298.9L265.1 267.8L216.3 316.6C210.1 322.8 200.1 322.8 193.9 316.6C187.7 310.4 187.7 300.4 193.9 294.2L242.7 245.4L211.7 214.8C204.3 207.6 207.4 195.3 217.1 192.3L223.6 198.8Z" fill="#47FFE5" />
  <circle cx="353" cy="144" r="28" fill="#8CF7A7" />
  <defs>
    <linearGradient id="bg" x1="76" y1="48" x2="424" y2="472" gradientUnits="userSpaceOnUse">
      <stop stop-color="#0F2E4C" />
      <stop offset="1" stop-color="#07111D" />
    </linearGradient>
  </defs>
</svg>